<?xml version="1.0" encoding="iso-8859-1"?>
<!-- Uploaded to: SVG Repo, www.svgrepo.com, Generator: SVG Repo Mixer Tools -->
<svg fill="#ef8f2c" height="15px" width="15px" version="1.1" id="Layer_1" xmlns="http://www.w3.org/2000/svg" xmlns:xlink="http://www.w3.org/1999/xlink" 
	 viewBox="0 0 512 512" xml:space="preserve">
<g>
	<g>
		<path d="M462.732,73.143h-28.554c-5.054,0-9.143,4.089-9.143,9.143s4.089,9.143,9.143,9.143h28.554c5,0,8.125,3.507,8.125,8.578
			V483.9c0,5.071-3.143,9.815-8.17,9.815H51.205c-5.027,0-10.062-4.743-10.062-9.815V100.007c0-5.071,5.009-8.578,10.009-8.578
			h262.571c5.053,0,9.143-4.089,9.143-9.143s-4.089-9.143-9.143-9.143H51.152c-15.08,0-28.295,11.712-28.295,26.864V483.9
			c0,15.152,13.241,28.1,28.348,28.1h411.482c15.107,0,26.455-12.949,26.455-28.1V100.007
			C489.143,84.855,477.813,73.143,462.732,73.143z"/>
	</g>
</g>
<g>
	<g>
		<path d="M406.857,310.239V8.525c0-5.053-3.143-8.525-8.196-8.525h-54.857c-5.054,0-10.089,3.471-10.089,8.525v301.714
			c0,1.241,0.723,2.464,1.214,3.598l27.902,64c1.438,3.366,4.741,5.545,8.402,5.545c3.661,0,6.964-2.179,8.402-5.545l26.955-64
			C407.08,312.703,406.857,311.48,406.857,310.239z M388.571,308.364l-18.286,42.661L352,308.364V18.286h36.571V308.364z"/>
	</g>
</g>
<g>
	<g>
		<path d="M224.947,173.714H87.804c-5.054,0-9.143,4.089-9.143,9.143c0,5.053,4.089,9.143,9.143,9.143h137.143
			c5.053,0,9.143-4.089,9.143-9.143C234.089,177.804,230,173.714,224.947,173.714z"/>
	</g>
</g>
<g>
	<g>
		<path d="M288.947,246.857H87.804c-5.054,0-9.143,4.089-9.143,9.143s4.089,9.143,9.143,9.143h201.143
			c5.053,0,9.143-4.089,9.143-9.143S294,246.857,288.947,246.857z"/>
	</g>
</g>
<g>
	<g>
		<path d="M288.947,320H87.804c-5.054,0-9.143,4.089-9.143,9.143c0,5.053,4.089,9.143,9.143,9.143h201.143
			c5.053,0,9.143-4.089,9.143-9.143C298.089,324.089,294,320,288.947,320z"/>
	</g>
</g>
<g>
	<g>
		<path d="M288.947,393.143H87.804c-5.054,0-9.143,4.089-9.143,9.143c0,5.054,4.089,9.143,9.143,9.143h201.143
			c5.053,0,9.143-4.089,9.143-9.143C298.089,397.232,294,393.143,288.947,393.143z"/>
	</g>
</g>
</svg>